<svg width="122" height="25" viewBox="0 0 122 25" fill="none" xmlns="http://www.w3.org/2000/svg">
<path d="M15.178 8.78941V11.3268H9.50815L8.87817 12.3417V8.78941H15.178Z" fill="#0066FF"/>
<path d="M8.87817 12.8492H15.178V15.3865H9.50815L8.87817 16.4014V12.8492Z" fill="#0066FF"/>
<path fill-rule="evenodd" clip-rule="evenodd" d="M0 12.1413C0 7.2693 0 4.8333 1.16122 3.0834C1.66393 2.32586 2.3099 1.67542 3.06225 1.16925C4.80014 0 7.21943 0 12.058 0C16.8966 0 19.3159 0 21.0538 1.16925C21.8061 1.67542 22.4521 2.32586 22.9548 3.0834C24.116 4.8333 24.116 7.2693 24.116 12.1413C24.116 17.0133 24.116 19.4493 22.9548 21.1992C22.4521 21.9568 21.8061 22.6072 21.0538 23.1134C19.3159 24.2826 16.8966 24.2826 12.058 24.2826C7.21943 24.2826 4.80014 24.2826 3.06225 23.1134C2.3099 22.6072 1.66393 21.9568 1.16122 21.1992C0 19.4493 0 17.0133 0 12.1413ZM8.87818 5.49086V8.28194L9.50816 7.267H15.178V5.49086C15.178 5.08373 15.2777 4.85653 15.934 4.85653H16.186C16.8423 4.85653 16.942 5.08373 16.942 5.49086V18.685C16.942 19.0922 16.8423 19.3194 16.186 19.3194H15.934C15.2777 19.3194 15.178 19.0922 15.178 18.685V16.9089H8.87818V18.685C8.87818 19.0922 8.77853 19.3194 8.1222 19.3194H7.8702C7.21387 19.3194 7.11422 19.0922 7.11422 18.685V5.49086C7.11422 5.08373 7.21387 4.85653 7.8702 4.85653H8.1222C8.77853 4.85653 8.87818 5.08373 8.87818 5.49086Z" fill="#0066FF"/>
<path d="M39.0021 4.76984V10.4479H34.373V4.76984H31.0063V19.6006H34.373V13.7107H39.0021V19.6006H42.3687V4.76984H39.0021Z" fill="#0066FF"/>
<path fill-rule="evenodd" clip-rule="evenodd" d="M47.6113 15.5751H55.081C55.1652 15.1726 55.2073 14.7488 55.2073 14.3039C55.2073 11.1047 52.9348 8.71059 49.8628 8.71059C46.5382 8.71059 44.2657 11.1471 44.2657 14.3039C44.2657 17.4607 46.4961 19.8972 50.0942 19.8972C52.0932 19.8972 53.6502 19.1557 54.6813 17.715L52.1563 16.2531C51.7355 16.7192 50.999 17.0582 50.1363 17.0582C48.979 17.0582 48.0111 16.6768 47.6113 15.5751ZM47.5482 13.2022C47.8428 12.1217 48.6424 11.5284 49.8417 11.5284C50.7886 11.5284 51.7355 11.9734 52.0721 13.2022H47.5482Z" fill="#0066FF"/>
<path fill-rule="evenodd" clip-rule="evenodd" d="M64.5328 10.003V9.0072H67.689V19.6006H64.5328V18.6048C63.8384 19.4099 62.8074 19.8972 61.3976 19.8972C58.6412 19.8972 56.3687 17.4607 56.3687 14.3039C56.3687 11.1471 58.6412 8.71059 61.3976 8.71059C62.8074 8.71059 63.8384 9.19788 64.5328 10.003ZM59.5249 14.3039C59.5249 15.8929 60.577 16.8887 62.0288 16.8887C63.4807 16.8887 64.5328 15.8929 64.5328 14.3039C64.5328 12.7149 63.4807 11.7191 62.0288 11.7191C60.577 11.7191 59.5249 12.7149 59.5249 14.3039Z" fill="#0066FF"/>
<path fill-rule="evenodd" clip-rule="evenodd" d="M77.6426 4.76984V10.003C76.9482 9.19788 75.9172 8.71059 74.5074 8.71059C71.751 8.71059 69.4785 11.1471 69.4785 14.3039C69.4785 17.4607 71.751 19.8972 74.5074 19.8972C75.9172 19.8972 76.9482 19.4099 77.6426 18.6048V19.6006H80.7988V4.76984H77.6426ZM75.1387 16.8887C73.6868 16.8887 72.6347 15.8929 72.6347 14.3039C72.6347 12.7149 73.6868 11.7191 75.1387 11.7191C76.5905 11.7191 77.6426 12.7149 77.6426 14.3039C77.6426 15.8929 76.5905 16.8887 75.1387 16.8887Z" fill="#0066FF"/>
<path d="M93.1722 14.6853L94.6872 9.0072H98.0538L94.6872 19.6006H91.7414L90.0581 13.9437L88.3747 19.6006H85.4289L82.0623 9.0072H85.4289L86.9439 14.6853L88.5852 9.0072H91.531L93.1722 14.6853Z" fill="#0066FF"/>
<path fill-rule="evenodd" clip-rule="evenodd" d="M106.534 9.0072V10.003C105.839 9.19788 104.808 8.71059 103.398 8.71059C100.642 8.71059 98.3694 11.1471 98.3694 14.3039C98.3694 17.4607 100.642 19.8972 103.398 19.8972C104.808 19.8972 105.839 19.4099 106.534 18.6048V19.6006H109.69V9.0072H106.534ZM104.03 16.8887C102.578 16.8887 101.526 15.8929 101.526 14.3039C101.526 12.7149 102.578 11.7191 104.03 11.7191C105.481 11.7191 106.534 12.7149 106.534 14.3039C106.534 15.8929 105.481 16.8887 104.03 16.8887Z" fill="#0066FF"/>
<path d="M116.655 15.4904L118.633 9.0072H122L118.402 19.2828C117.224 22.6515 115.351 23.9863 112.405 23.838V20.8718C113.878 20.8718 114.572 20.4057 115.035 19.1133L110.848 9.0072H114.32L116.655 15.4904Z" fill="#0066FF"/>
</svg>
