<svg width="25" height="24" viewBox="0 0 25 24" fill="none" xmlns="http://www.w3.org/2000/svg">
<path fill-rule="evenodd" clip-rule="evenodd" d="M4.49994 10C4.49994 9.44772 4.94765 9 5.49994 9H15.4999C16.0522 9 16.4999 9.44772 16.4999 10C16.4999 10.5523 16.0522 11 15.4999 11H5.49994C4.94765 11 4.49994 10.5523 4.49994 10ZM4.49994 6C4.49994 5.44772 4.94765 5 5.49994 5H19.4999C20.0522 5 20.4999 5.44772 20.4999 6C20.4999 6.55228 20.0522 7 19.4999 7H5.49994C4.94765 7 4.49994 6.55228 4.49994 6ZM4.49994 14C4.49994 13.4477 4.94765 13 5.49994 13H19.4999C20.0522 13 20.4999 13.4477 20.4999 14C20.4999 14.5523 20.0522 15 19.4999 15H5.49994C4.94765 15 4.49994 14.5523 4.49994 14ZM4.49994 18C4.49994 17.4477 4.94765 17 5.49994 17H12.4999C13.0522 17 13.4999 17.4477 13.4999 18C13.4999 18.5523 13.0522 19 12.4999 19H5.49994C4.94765 19 4.49994 18.5523 4.49994 18Z" fill="black"/>
</svg>
