<svg width="24" height="24" viewBox="0 0 24 24" fill="none" xmlns="http://www.w3.org/2000/svg">
<path d="M20.5 12C20.5 16.6944 16.6944 20.5 12 20.5C7.30558 20.5 3.5 16.6944 3.5 12C3.5 7.30558 7.30558 3.5 12 3.5C16.6944 3.5 20.5 7.30558 20.5 12Z" fill="#FF8833"/>
<mask id="mask0_42_2119" style="mask-type:alpha" maskUnits="userSpaceOnUse" x="3" y="3" width="18" height="18">
<path d="M20.5 12C20.5 16.6944 16.6944 20.5 12 20.5C7.30558 20.5 3.5 16.6944 3.5 12C3.5 7.30558 7.30558 3.5 12 3.5C16.6944 3.5 20.5 7.30558 20.5 12Z" fill="#FF8833"/>
</mask>
<g mask="url(#mask0_42_2119)">
<path fill-rule="evenodd" clip-rule="evenodd" d="M1.5 4.5C-2.91828 4.5 -6.5 8.08172 -6.5 12.5C-6.5 16.9183 -2.91828 20.5 1.5 20.5C5.91828 20.5 9.5 16.9183 9.5 12.5C9.5 8.08172 5.91828 4.5 1.5 4.5ZM-7.5 12.5C-7.5 7.52944 -3.47056 3.5 1.5 3.5C6.47056 3.5 10.5 7.52944 10.5 12.5C10.5 17.4706 6.47056 21.5 1.5 21.5C-3.47056 21.5 -7.5 17.4706 -7.5 12.5Z" fill="#8D33FF"/>
<path fill-rule="evenodd" clip-rule="evenodd" d="M22.5 4.5C18.0817 4.5 14.5 8.08172 14.5 12.5C14.5 16.9183 18.0817 20.5 22.5 20.5C26.9183 20.5 30.5 16.9183 30.5 12.5C30.5 8.08172 26.9183 4.5 22.5 4.5ZM13.5 12.5C13.5 7.52944 17.5294 3.5 22.5 3.5C27.4706 3.5 31.5 7.52944 31.5 12.5C31.5 17.4706 27.4706 21.5 22.5 21.5C17.5294 21.5 13.5 17.4706 13.5 12.5Z" fill="#8D33FF"/>
<path fill-rule="evenodd" clip-rule="evenodd" d="M11.5 24.25V0.5H12.5V24.25H11.5Z" fill="#8D33FF"/>
<path fill-rule="evenodd" clip-rule="evenodd" d="M0 12L23.75 12L23.75 13L-4.37114e-08 13L0 12Z" fill="#8D33FF"/>
</g>
</svg>
