<svg width="256" height="168" viewBox="0 0 256 168" fill="none" xmlns="http://www.w3.org/2000/svg">
<path d="M150.653 21H106.386C101.451 21 97.4499 24.9838 97.4499 29.8981V37.541H97.3025C97.1354 37.541 97 37.6759 97 37.8422V42.193C97 42.3594 97.1354 42.4942 97.3025 42.4942H97.4499V46.7782H97.3026C97.135 46.7782 97 46.9123 97 47.0792V55.7027C97 55.8696 97.135 56.004 97.3026 56.004H97.4499V58.3802H97.3026C97.135 58.3802 97 58.5143 97 58.6812V67.3047C97 67.4716 97.135 67.606 97.3026 67.606H97.4499V138.102C97.4499 143.016 101.451 147 106.386 147H150.653C155.589 147 159.59 143.016 159.59 138.102V64.3856H159.697C159.865 64.3856 160 64.2512 160 64.0843V50.0967C160 49.9298 159.865 49.7957 159.697 49.7957H159.59V29.8981C159.59 24.9838 155.589 21 150.653 21Z" fill="#7A00DA"/>
<path d="M100.674 29.8629C100.674 26.7233 103.213 24.1958 106.366 24.1958H111.934H144.888H150.456C153.609 24.1958 156.147 26.7233 156.147 29.8629V138.214C156.147 141.354 153.609 143.881 150.456 143.881H106.366C103.213 143.881 100.674 141.354 100.674 138.214V29.8629Z" fill="white"/>
<path d="M100.674 29.8629C100.674 26.7233 103.213 24.1958 106.366 24.1958H111.934H144.888H150.456C153.609 24.1958 156.147 26.7233 156.147 29.8629V138.214C156.147 141.354 153.609 143.881 150.456 143.881H106.366C103.213 143.881 100.674 141.354 100.674 138.214V29.8629Z" stroke="white"/>
<rect x="109" y="33" width="39" height="4" rx="2" fill="#FF8833"/>
<rect x="109" y="39" width="31" height="4" rx="2" fill="#FF8833"/>
<rect x="109" y="55" width="31" height="4" rx="2" fill="#FF8833"/>
<rect x="109" y="67" width="15" height="4" rx="2" fill="#FF8833"/>
<rect x="109" y="61" width="39" height="4" rx="2" fill="#FF8833"/>
<rect x="109" y="83" width="31" height="4" rx="2" fill="#FF8833"/>
<rect x="109" y="111" width="31" height="4" rx="2" fill="#FF8833"/>
<rect x="109" y="95" width="23" height="4" rx="2" fill="#FF8833"/>
<rect x="109" y="123" width="23" height="4" rx="2" fill="#FF8833"/>
<rect x="109" y="89" width="39" height="4" rx="2" fill="#FF8833"/>
<rect x="109" y="117" width="39" height="4" rx="2" fill="#FF8833"/>
</svg>
