<svg width="16" height="16" viewBox="0 0 16 16" fill="none" xmlns="http://www.w3.org/2000/svg">
<path fill-rule="evenodd" clip-rule="evenodd" d="M4.57664 7.99994C4.57664 6.10921 6.10934 4.5765 8.00007 4.5765C9.89077 4.5765 11.4235 6.10921 11.4235 7.99994C11.4235 9.89064 9.89077 11.4233 8.00007 11.4233C6.10934 11.4233 4.57664 9.89064 4.57664 7.99994ZM5.77785 7.99994C5.77785 9.22723 6.77276 10.2221 8.00008 10.2221C9.22738 10.2221 10.2223 9.22723 10.2223 7.99994C10.2223 6.77262 9.22738 5.7777 8.00008 5.7777C6.77276 5.7777 5.77785 6.77262 5.77785 7.99994Z" fill="black" fill-opacity="0.4"/>
<path d="M11.5587 5.24123C12.0006 5.24123 12.3587 4.88308 12.3587 4.44125C12.3587 3.99941 12.0006 3.64123 11.5587 3.64123C11.1169 3.64123 10.7587 3.99941 10.7587 4.44125C10.7587 4.88308 11.1169 5.24123 11.5587 5.24123Z" fill="black" fill-opacity="0.4"/>
<path fill-rule="evenodd" clip-rule="evenodd" d="M8.00005 1.33325C6.18948 1.33325 5.96245 1.34093 5.25138 1.37337C4.54179 1.40574 4.05717 1.51844 3.63312 1.68326C3.19473 1.8536 2.82294 2.08156 2.4523 2.45218C2.08168 2.82282 1.85372 3.19461 1.68338 3.633C1.51856 4.05705 1.40586 4.54167 1.37349 5.25126C1.34105 5.96233 1.33337 6.18936 1.33337 7.99993C1.33337 9.81048 1.34105 10.0375 1.37349 10.7486C1.40586 11.4582 1.51856 11.9428 1.68338 12.3668C1.85372 12.8052 2.08168 13.177 2.4523 13.5477C2.82294 13.9183 3.19473 14.1462 3.63312 14.3166C4.05717 14.4814 4.54179 14.5941 5.25138 14.6265C5.96245 14.6589 6.18948 14.6666 8.00005 14.6666C9.8106 14.6666 10.0376 14.6589 10.7487 14.6265C11.4583 14.5941 11.9429 14.4814 12.367 14.3166C12.8054 14.1462 13.1771 13.9183 13.5478 13.5477C13.9184 13.177 14.1464 12.8052 14.3167 12.3668C14.4815 11.9428 14.5942 11.4582 14.6266 10.7486C14.659 10.0375 14.6667 9.81048 14.6667 7.99993C14.6667 6.18936 14.659 5.96233 14.6266 5.25126C14.5942 4.54167 14.4815 4.05705 14.3167 3.633C14.1464 3.19461 13.9184 2.82282 13.5478 2.45218C13.1771 2.08156 12.8054 1.8536 12.367 1.68326C11.9429 1.51844 11.4583 1.40574 10.7487 1.37337C10.0376 1.34093 9.8106 1.33325 8.00005 1.33325ZM8.00005 2.53445C9.78011 2.53445 9.99097 2.54125 10.6939 2.57333C11.3439 2.60297 11.6969 2.71157 11.9318 2.80287C12.243 2.92381 12.4651 3.06827 12.6984 3.30157C12.9317 3.53485 13.0761 3.75693 13.1971 4.06811C13.2884 4.30303 13.397 4.65602 13.4266 5.30602C13.4587 6.00899 13.4655 6.21985 13.4655 7.99994C13.4655 9.77999 13.4587 9.99085 13.4266 10.6938C13.397 11.3438 13.2884 11.6968 13.1971 11.9317C13.0761 12.2429 12.9317 12.465 12.6984 12.6983C12.4651 12.9316 12.243 13.076 11.9318 13.197C11.6969 13.2883 11.3439 13.3969 10.6939 13.4265C9.99108 13.4586 9.78024 13.4654 8.00005 13.4654C6.21983 13.4654 6.00903 13.4586 5.30613 13.4265C4.65614 13.3969 4.30314 13.2883 4.06823 13.197C3.75704 13.076 3.53496 12.9316 3.30169 12.6983C3.06841 12.465 2.92392 12.2429 2.80299 11.9317C2.71169 11.6968 2.60308 11.3438 2.57344 10.6938C2.54137 9.99085 2.53457 9.77999 2.53457 7.99994C2.53457 6.21985 2.54137 6.00899 2.57344 5.30602C2.60308 4.65602 2.71169 4.30303 2.80299 4.06811C2.92392 3.75693 3.06839 3.53485 3.30169 3.30157C3.53496 3.06827 3.75704 2.92381 4.06823 2.80287C4.30314 2.71157 4.65614 2.60297 5.30613 2.57333C6.0091 2.54125 6.21996 2.53445 8.00005 2.53445Z" fill="black" fill-opacity="0.4"/>
</svg>
