<svg width="24" height="24" viewBox="0 0 24 24" fill="none" xmlns="http://www.w3.org/2000/svg">
<path fill-rule="evenodd" clip-rule="evenodd" d="M6.86495 12C6.86495 9.16393 9.16401 6.86487 12.0001 6.86487C14.8362 6.86487 17.1352 9.16393 17.1352 12C17.1352 14.8361 14.8362 17.1351 12.0001 17.1351C9.16401 17.1351 6.86495 14.8361 6.86495 12ZM8.66677 12C8.66677 13.841 10.1591 15.3333 12.0001 15.3333C13.8411 15.3333 15.3334 13.841 15.3334 12C15.3334 10.159 13.8411 8.66667 12.0001 8.66667C10.1591 8.66667 8.66677 10.159 8.66677 12Z" fill="black"/>
<path d="M17.3381 7.86197C18.0008 7.86197 18.5381 7.32474 18.5381 6.66199C18.5381 5.99924 18.0008 5.46197 17.3381 5.46197C16.6754 5.46197 16.1381 5.99924 16.1381 6.66199C16.1381 7.32474 16.6754 7.86197 17.3381 7.86197Z" fill="black"/>
<path fill-rule="evenodd" clip-rule="evenodd" d="M12.0001 2C9.28422 2 8.94368 2.01151 7.87707 2.06018C6.81269 2.10872 6.08575 2.27779 5.44968 2.52501C4.79209 2.78052 4.23442 3.12246 3.67845 3.67839C3.12252 4.23436 2.78059 4.79203 2.52507 5.44962C2.27785 6.08569 2.10879 6.81263 2.06024 7.87701C2.01157 8.94362 2.00006 9.28416 2.00006 12C2.00006 14.7158 2.01157 15.0564 2.06024 16.123C2.10879 17.1874 2.27785 17.9143 2.52507 18.5504C2.78059 19.208 3.12252 19.7656 3.67845 20.3216C4.23442 20.8775 4.79209 21.2195 5.44968 21.475C6.08575 21.7222 6.81269 21.8913 7.87707 21.9398C8.94368 21.9885 9.28422 22 12.0001 22C14.7159 22 15.0564 21.9885 16.123 21.9398C17.1874 21.8913 17.9144 21.7222 18.5504 21.475C19.208 21.2195 19.7657 20.8775 20.3217 20.3216C20.8776 19.7656 21.2195 19.208 21.4751 18.5504C21.7223 17.9143 21.8913 17.1874 21.9399 16.123C21.9886 15.0564 22.0001 14.7158 22.0001 12C22.0001 9.28416 21.9886 8.94362 21.9399 7.87701C21.8913 6.81263 21.7223 6.08569 21.4751 5.44962C21.2195 4.79203 20.8776 4.23436 20.3217 3.67839C19.7657 3.12246 19.208 2.78052 18.5504 2.52501C17.9144 2.27779 17.1874 2.10872 16.123 2.06018C15.0564 2.01151 14.7159 2 12.0001 2ZM12.0001 3.8018C14.6702 3.8018 14.9865 3.812 16.0409 3.86011C17.0159 3.90457 17.5454 4.06748 17.8978 4.20443C18.3645 4.38584 18.6977 4.60253 19.0476 4.95248C19.3975 5.3024 19.6142 5.63552 19.7956 6.10229C19.9326 6.45466 20.0955 6.98416 20.1399 7.95915C20.1881 9.01361 20.1983 9.3299 20.1983 12C20.1983 14.6701 20.1881 14.9864 20.1399 16.0409C20.0955 17.0159 19.9326 17.5453 19.7956 17.8977C19.6142 18.3645 19.3975 18.6976 19.0476 19.0475C18.6977 19.3975 18.3645 19.6142 17.8978 19.7956C17.5454 19.9325 17.0159 20.0954 16.0409 20.1399C14.9866 20.188 14.6704 20.1982 12.0001 20.1982C9.32975 20.1982 9.01354 20.188 7.9592 20.1399C6.98421 20.0954 6.45471 19.9325 6.10234 19.7956C5.63557 19.6142 5.30245 19.3975 4.95253 19.0475C4.60262 18.6976 4.38589 18.3645 4.20448 17.8977C4.06753 17.5453 3.90462 17.0159 3.86017 16.0409C3.81205 14.9864 3.80185 14.6701 3.80185 12C3.80185 9.3299 3.81205 9.01361 3.86017 7.95915C3.90462 6.98416 4.06753 6.45466 4.20448 6.10229C4.38589 5.63552 4.60258 5.3024 4.95253 4.95248C5.30245 4.60253 5.63557 4.38584 6.10234 4.20443C6.45471 4.06748 6.98421 3.90457 7.9592 3.86011C9.01366 3.812 9.32995 3.8018 12.0001 3.8018Z" fill="black"/>
</svg>
