<svg width="24" height="24" viewBox="0 0 24 24" fill="none" xmlns="http://www.w3.org/2000/svg">
<path d="M10.5 3.5H14.5C14.7761 3.5 15 3.72386 15 4V6C15 6.27614 14.7761 6.5 14.5 6.5H10.5V3.5Z" fill="#8D33FF"/>
<path fill-rule="evenodd" clip-rule="evenodd" d="M10.5 3C10.6381 3.00003 10.75 3.11198 10.7499 3.25005L10.7487 9.21054C10.7486 9.34861 10.6367 9.46051 10.4986 9.46048C10.3605 9.46045 10.2486 9.3485 10.2487 9.21043L10.2499 3.24995C10.25 3.11188 10.3619 2.99997 10.5 3Z" fill="#8D33FF"/>
<path fill-rule="evenodd" clip-rule="evenodd" d="M3.06662 20.2519L10.0567 8.01927C10.2503 7.68035 10.7403 7.68415 10.9287 8.02603L14.3377 14.2127L15.7716 11.6778C15.9648 11.3364 16.4579 11.3402 16.6458 11.6846L21.3233 20.2601C21.5051 20.5933 21.2639 20.9996 20.8844 20.9996H17.2507C17.2443 20.9998 17.2378 20.9999 17.2312 20.9999H3.50074C3.11683 20.9999 2.87614 20.5852 3.06662 20.2519Z" fill="#FF8833"/>
<mask id="mask0_42_2085" style="mask-type:alpha" maskUnits="userSpaceOnUse" x="3" y="7" width="19" height="14">
<path fill-rule="evenodd" clip-rule="evenodd" d="M3.06662 20.2519L10.0567 8.01927C10.2503 7.68035 10.7403 7.68415 10.9287 8.02603L14.3377 14.2127L15.7716 11.6778C15.9648 11.3364 16.4579 11.3402 16.6458 11.6846L21.3233 20.2601C21.5051 20.5933 21.2639 20.9996 20.8844 20.9996H17.2507C17.2443 20.9998 17.2378 20.9999 17.2312 20.9999H3.50074C3.11683 20.9999 2.87614 20.5852 3.06662 20.2519Z" fill="#731DE0"/>
</mask>
<g mask="url(#mask0_42_2085)">
<path d="M14 10.4998H7.5V7.49976H14V10.4998Z" fill="#8D33FF"/>
</g>
</svg>
