<svg width="24" height="24" viewBox="0 0 24 24" fill="none" xmlns="http://www.w3.org/2000/svg">
<g clip-path="url(#clip0_42_2107)">
<path d="M14.2499 17.9467C17.657 16.5949 19.3232 12.7371 17.9714 9.32994C16.6195 5.92283 12.7617 4.25667 9.35456 5.60848C5.94744 6.96029 4.28128 10.8182 5.63309 14.2253C6.98491 17.6324 10.8428 19.2986 14.2499 17.9467Z" fill="#FF8833"/>
<path d="M17.3644 8.1475C16.445 9.59138 14.614 11.0525 11.9559 12.1072C9.29785 13.1618 6.94301 13.4762 5.28374 13.0554C2.94585 14.3963 1.32175 15.5687 1.5736 16.2035C1.99073 17.2548 7.27782 17.0398 12.9907 14.7731C18.7036 12.5065 22.7 9.03821 22.2828 7.98688C22.031 7.35211 19.9857 7.52076 17.3644 8.1475Z" fill="#8D33FF"/>
<path d="M6.80004 20.3977C6.06233 20.1154 5.66509 19.4549 5.48855 19.0689C5.47913 19.0485 5.46317 19.0311 5.44268 19.0188C5.4222 19.0065 5.39812 19 5.37348 19C5.34884 19 5.32475 19.0065 5.30427 19.0188C5.28379 19.0311 5.26782 19.0485 5.25841 19.0689C5.08107 19.4549 4.68226 20.1175 3.95006 20.3977C3.92777 20.4063 3.90878 20.4206 3.89544 20.4388C3.88211 20.457 3.875 20.4782 3.875 20.5C3.875 20.5218 3.88211 20.543 3.89544 20.5612C3.90878 20.5794 3.92777 20.5937 3.95006 20.6023C4.68699 20.8846 5.08422 21.5458 5.25998 21.9311C5.2694 21.9515 5.28536 21.9689 5.30584 21.9812C5.32633 21.9935 5.35041 22 5.37505 22C5.39969 22 5.42378 21.9935 5.44426 21.9812C5.46474 21.9689 5.4807 21.9515 5.49012 21.9311C5.66825 21.5458 6.06705 20.8839 6.80162 20.6016C6.82362 20.5927 6.84226 20.5783 6.85529 20.5602C6.86832 20.542 6.87516 20.5208 6.875 20.4992C6.87483 20.4776 6.86766 20.4565 6.85435 20.4385C6.84104 20.4204 6.82218 20.4063 6.80004 20.3977Z" fill="#8D33FF"/>
<path d="M17.2281 2.54248C16.4139 2.23096 15.9756 1.50201 15.7807 1.07601C15.7703 1.05351 15.7527 1.03428 15.7301 1.02075C15.7075 1.00722 15.6809 1 15.6537 1C15.6265 1 15.6 1.00722 15.5773 1.02075C15.5547 1.03428 15.5371 1.05351 15.5267 1.07601C15.331 1.50201 14.8909 2.2333 14.0828 2.54248C14.0582 2.55202 14.0373 2.56779 14.0226 2.58785C14.0078 2.60792 14 2.6314 14 2.65541C14 2.67941 14.0078 2.70289 14.0226 2.72296C14.0373 2.74302 14.0582 2.75879 14.0828 2.76833C14.8961 3.07985 15.3345 3.80958 15.5285 4.2348C15.5389 4.2573 15.5565 4.27653 15.5791 4.29006C15.6017 4.30359 15.6283 4.31081 15.6555 4.31081C15.6827 4.31081 15.7092 4.30359 15.7318 4.29006C15.7544 4.27653 15.7721 4.2573 15.7825 4.2348C15.979 3.80958 16.4192 3.07907 17.2298 2.76755C17.2541 2.75776 17.2747 2.74186 17.2891 2.72179C17.3034 2.70172 17.311 2.67835 17.3108 2.65451C17.3106 2.63067 17.3027 2.60739 17.288 2.5875C17.2733 2.56761 17.2525 2.55197 17.2281 2.54248Z" fill="#8D33FF"/>
<path d="M20.9409 4.75045C20.3594 4.52794 20.0462 4.00726 19.9071 3.70298C19.8996 3.68691 19.8871 3.67317 19.8709 3.66351C19.8548 3.65384 19.8358 3.64868 19.8164 3.64868C19.7969 3.64868 19.778 3.65384 19.7618 3.66351C19.7457 3.67317 19.7331 3.68691 19.7257 3.70298C19.5859 4.00726 19.2715 4.52961 18.6943 4.75045C18.6767 4.75727 18.6618 4.76853 18.6512 4.78286C18.6407 4.79719 18.6351 4.81397 18.6351 4.83112C18.6351 4.84826 18.6407 4.86503 18.6512 4.87937C18.6618 4.8937 18.6767 4.90496 18.6943 4.91177C19.2752 5.13429 19.5883 5.65552 19.7269 5.95925C19.7343 5.97532 19.7469 5.98906 19.7631 5.99872C19.7792 6.00839 19.7982 6.01355 19.8176 6.01355C19.837 6.01355 19.856 6.00839 19.8722 5.99872C19.8883 5.98906 19.9009 5.97532 19.9083 5.95925C20.0487 5.65552 20.3631 5.13373 20.9422 4.91122C20.9595 4.90423 20.9742 4.89287 20.9845 4.87853C20.9947 4.8642 21.0001 4.8475 21 4.83047C20.9999 4.81344 20.9942 4.79682 20.9837 4.78261C20.9732 4.7684 20.9584 4.75723 20.9409 4.75045Z" fill="#8D33FF"/>
</g>
<defs>
<clipPath id="clip0_42_2107">
<rect width="24" height="24" fill="white"/>
</clipPath>
</defs>
</svg>
