<svg width="24" height="24" viewBox="0 0 24 24" fill="none" xmlns="http://www.w3.org/2000/svg">
<path d="M18.5 13C18.5 17.4183 14.9183 21 10.5 21C6.08172 21 2.5 17.4183 2.5 13C2.5 8.58172 6.08172 5 10.5 5C14.9183 5 18.5 8.58172 18.5 13Z" fill="#FF8833"/>
<path d="M5.49334 13.5094C5.4116 13.5532 5.34948 13.587 5.28736 13.6207C5.186 13.6746 5.09772 13.651 5.03559 13.5532C4.97347 13.4588 4.99309 13.3509 5.09118 13.2801C5.37891 13.0643 5.7026 13.0272 6.04264 13.0643C6.09169 13.071 6.144 13.0778 6.19305 13.0913C6.3173 13.1182 6.3925 13.2194 6.37288 13.3307C6.35326 13.4453 6.2519 13.5162 6.12439 13.4959C6.07207 13.4892 6.01649 13.4757 5.92821 13.4588C5.95763 13.678 5.96744 13.8837 6.01322 14.0827C6.41212 15.8868 7.53034 17.0098 9.21421 17.5257C10.7346 17.9911 12.1765 17.7449 13.4811 16.8041C14.4685 16.0892 15.0702 15.1045 15.2565 13.8635C15.2794 13.7185 15.2794 13.5701 15.2925 13.4049C15.2042 13.4217 15.129 13.4386 15.0571 13.4487C14.9524 13.4622 14.8576 13.3914 14.8347 13.2801C14.8151 13.1722 14.8511 13.0811 14.959 13.0575C15.3415 12.9631 15.7143 12.9699 16.0576 13.1924C16.2015 13.2835 16.2341 13.388 16.1655 13.506C16.1066 13.6106 15.9922 13.6241 15.8549 13.5431C15.8189 13.5229 15.7829 13.5027 15.747 13.4858C15.7077 13.7556 15.6783 14.0152 15.626 14.2749C15.3938 15.4147 14.802 16.3252 13.9225 17.0334C12.8468 17.9001 11.6109 18.2879 10.2572 18.1833C8.57662 18.0552 7.20991 17.3099 6.2519 15.8497C5.8105 15.1787 5.57181 14.4267 5.50969 13.6173C5.49988 13.5836 5.49661 13.5566 5.49334 13.5094Z" fill="#8D33FF"/>
<path fill-rule="evenodd" clip-rule="evenodd" d="M15.0322 13.2456C15.0329 13.2474 15.0336 13.2487 15.0342 13.2496C15.0352 13.2512 15.0359 13.2517 15.0357 13.2516C15.0355 13.2514 15.0348 13.251 15.0336 13.2506C15.0324 13.2503 15.0316 13.2503 15.0315 13.2503C15.0314 13.2503 15.0315 13.2503 15.0315 13.2503L15.057 13.4487L15.0292 13.2507C15.0736 13.2444 15.117 13.2357 15.1705 13.225C15.1959 13.2199 15.2237 13.2144 15.2549 13.2084L15.2673 13.2061C15.191 13.2133 15.1127 13.2267 15.0322 13.2456ZM15.5088 13.2057L15.4918 13.4206C15.4882 13.4664 15.4855 13.5157 15.4827 13.5666C15.4769 13.6744 15.4706 13.7895 15.4541 13.8939C15.2598 15.1871 14.6296 16.2195 13.5983 16.9661C12.244 17.9428 10.737 18.201 9.15563 17.717C7.4067 17.1811 6.23348 16.0043 5.81807 14.1267C5.78493 13.9823 5.76807 13.8253 5.75223 13.6778C5.74506 13.611 5.7381 13.5462 5.72994 13.4854L5.6993 13.2572C5.69166 13.2579 5.68405 13.2587 5.67647 13.2595L5.69282 13.4956C5.69578 13.5383 5.69789 13.5484 5.70169 13.5615L5.70747 13.5814L5.70906 13.602C5.76884 14.3809 5.99788 15.0997 6.41895 15.7398C7.34089 17.145 8.64981 17.8602 10.2724 17.9839C11.5742 18.0844 12.7602 17.713 13.797 16.8777C14.6429 16.1966 15.2077 15.326 15.4299 14.2352C15.4668 14.0521 15.4916 13.8714 15.5178 13.68C15.5278 13.6074 15.5379 13.5334 15.549 13.457L15.5841 13.2161C15.5592 13.2117 15.5341 13.2082 15.5088 13.2057ZM15.7053 13.2454L15.8318 13.3047C15.8746 13.3247 15.916 13.3481 15.9502 13.3673L15.9564 13.3708C15.9665 13.3767 15.9754 13.3813 15.9831 13.3848C15.9752 13.3782 15.9646 13.3703 15.9506 13.3614L15.9487 13.3602C15.87 13.3092 15.7889 13.2714 15.7053 13.2454ZM5.41571 13.3241C5.35613 13.3482 5.29862 13.3789 5.24302 13.4172C5.28946 13.392 5.33889 13.3653 5.39877 13.3332L5.41571 13.3241ZM5.92687 13.255L5.96568 13.2624C6.00581 13.27 6.03601 13.2762 6.06061 13.2813C6.0983 13.289 6.12286 13.2941 6.14991 13.2976L6.1557 13.2983C6.16563 13.2999 6.17182 13.2993 6.17473 13.2987C6.17496 13.2986 6.17518 13.2986 6.17538 13.2986C6.17543 13.2983 6.17547 13.2981 6.17552 13.2979C6.17288 13.2954 6.16572 13.29 6.15057 13.2867L6.14523 13.2855L6.13997 13.2841C6.10693 13.275 6.06987 13.2699 6.01819 13.2628C5.9873 13.2595 5.95686 13.2568 5.92687 13.255ZM16.1655 13.024C15.761 12.7622 15.3269 12.7611 14.9132 12.8628C14.8075 12.8867 14.7201 12.9499 14.6709 13.0462C14.6249 13.1363 14.623 13.2339 14.6379 13.3159L14.6388 13.3204C14.6804 13.5229 14.8617 13.6728 15.0775 13.6477C15.0736 13.7112 15.0688 13.77 15.0589 13.8323L15.0587 13.8338C14.8802 15.0222 14.3073 15.9589 13.364 16.6419C12.1092 17.5468 10.7321 17.7812 9.27275 17.3345C7.65419 16.8386 6.591 15.7697 6.20846 14.0395L6.20808 14.0378C6.18234 13.926 6.16985 13.8188 6.15709 13.6991C6.35701 13.703 6.53392 13.5751 6.56997 13.3644L6.37283 13.3307L6.5698 13.3654C6.61091 13.1322 6.44849 12.9448 6.24107 12.8971C6.18304 12.8816 6.1236 12.8735 6.08038 12.8676C6.07675 12.8671 6.07324 12.8666 6.06985 12.8661L6.06429 12.8654C5.69652 12.8253 5.31536 12.8625 4.97244 13.1191C4.8897 13.1794 4.82757 13.2651 4.80704 13.3691C4.78641 13.4737 4.81188 13.5765 4.86757 13.6618C4.91743 13.7398 4.99183 13.8094 5.09499 13.8371C5.17746 13.8591 5.25735 13.8487 5.32796 13.8216C5.41335 14.5904 5.65784 15.3106 6.08476 15.9596C7.07879 17.4746 8.50331 18.2501 10.2418 18.3827C11.6472 18.4913 12.9333 18.0871 14.0479 17.1891C14.961 16.4539 15.5798 15.5036 15.8219 14.3148C15.8576 14.1377 15.8834 13.9581 15.9077 13.7811C15.9576 13.7939 16.0099 13.7991 16.0632 13.7927C16.1848 13.7783 16.2811 13.7075 16.339 13.6054C16.3935 13.5111 16.4212 13.3957 16.3808 13.2754C16.3428 13.1626 16.2568 13.082 16.1655 13.024Z" fill="#8D33FF"/>
<path d="M9.29995 11.0467C9.28987 11.7775 9.23947 12.341 9.01433 12.8737C8.9572 13.0103 8.87655 13.14 8.78247 13.2493C8.60773 13.4542 8.38931 13.4474 8.21122 13.2459C7.99616 13.0034 7.89535 12.6995 7.8315 12.3888C7.65005 11.5351 7.64669 10.6814 7.88191 9.83791C7.93903 9.62619 8.03648 9.41447 8.15745 9.23007C8.35571 8.92274 8.63797 8.92616 8.85303 9.22324C9.07145 9.52716 9.16554 9.8823 9.2193 10.2443C9.26299 10.5618 9.28315 10.8863 9.29995 11.0467Z" fill="#8D33FF"/>
<path fill-rule="evenodd" clip-rule="evenodd" d="M12.1767 11.2215C11.9892 11.3693 11.8872 11.5191 11.8555 11.6135C11.7895 11.8098 11.5769 11.9155 11.3805 11.8495C11.1842 11.7836 11.0785 11.5709 11.1445 11.3746C11.2378 11.0969 11.4546 10.8357 11.7124 10.6325C11.9762 10.4245 12.3145 10.2519 12.692 10.173C13.0723 10.0935 13.4958 10.1088 13.9155 10.284C14.3357 10.4594 14.7278 10.7847 15.062 11.286C15.1769 11.4584 15.1303 11.6912 14.958 11.8061C14.7857 11.921 14.5528 11.8744 14.438 11.7021C14.1722 11.3034 13.8893 11.0857 13.6266 10.9761C13.3636 10.8663 13.0964 10.8546 12.8455 10.9071C12.5917 10.9602 12.3581 11.0785 12.1767 11.2215Z" fill="#8D33FF"/>
<path d="M18.1563 2.7471C17.2342 2.39426 16.7376 1.5686 16.5169 1.08609C16.5052 1.06061 16.4852 1.03883 16.4596 1.02351C16.434 1.00818 16.4039 1 16.3731 1C16.3423 1 16.3122 1.00818 16.2866 1.02351C16.261 1.03883 16.241 1.06061 16.2293 1.08609C16.0076 1.5686 15.5091 2.3969 14.5938 2.7471C14.566 2.7579 14.5422 2.77576 14.5256 2.79849C14.5089 2.82121 14.5 2.84781 14.5 2.875C14.5 2.90219 14.5089 2.92879 14.5256 2.95151C14.5422 2.97424 14.566 2.9921 14.5938 3.0029C15.515 3.35574 16.0115 4.18228 16.2312 4.66391C16.243 4.68939 16.263 4.71117 16.2886 4.72649C16.3142 4.74182 16.3443 4.75 16.3751 4.75C16.4059 4.75 16.436 4.74182 16.4616 4.72649C16.4872 4.71117 16.5071 4.68939 16.5189 4.66391C16.7416 4.18228 17.2401 3.35487 18.1583 3.00203C18.1858 2.99093 18.2091 2.97293 18.2254 2.95019C18.2416 2.92746 18.2502 2.90099 18.25 2.87399C18.2498 2.84698 18.2408 2.82061 18.2242 2.79809C18.2076 2.77556 18.184 2.75785 18.1563 2.7471Z" fill="#8D33FF"/>
<path d="M21.1116 5.74793C20.453 5.4959 20.0983 4.90615 19.9407 4.5615C19.9323 4.54329 19.918 4.52774 19.8997 4.51679C19.8814 4.50584 19.8599 4.5 19.8379 4.5C19.8159 4.5 19.7944 4.50584 19.7761 4.51679C19.7578 4.52774 19.7436 4.54329 19.7352 4.5615C19.5768 4.90615 19.2208 5.49779 18.567 5.74793C18.5471 5.75564 18.5302 5.7684 18.5183 5.78463C18.5063 5.80087 18.5 5.81987 18.5 5.83929C18.5 5.85871 18.5063 5.8777 18.5183 5.89394C18.5302 5.91017 18.5471 5.92293 18.567 5.93065C19.225 6.18267 19.5797 6.77306 19.7366 7.11708C19.745 7.13528 19.7593 7.15083 19.7775 7.16178C19.7958 7.17273 19.8173 7.17857 19.8393 7.17857C19.8613 7.17857 19.8828 7.17273 19.9011 7.16178C19.9194 7.15083 19.9337 7.13528 19.9421 7.11708C20.1011 6.77306 20.4572 6.18205 21.1131 5.93002C21.1327 5.9221 21.1493 5.90923 21.161 5.893C21.1726 5.87676 21.1787 5.85785 21.1786 5.83856C21.1784 5.81927 21.172 5.80044 21.1601 5.78435C21.1483 5.76826 21.1314 5.7556 21.1116 5.74793Z" fill="#8D33FF"/>
</svg>
