<svg width="24" height="24" viewBox="0 0 24 24" fill="none" xmlns="http://www.w3.org/2000/svg">
<path d="M14.385 15.462C14.3263 15.7693 14.2359 16.072 14.1139 16.3567C14.1365 16.3024 14.1591 16.2482 14.1817 16.194C14.0371 16.5329 13.8519 16.8537 13.6259 17.1429C13.6621 17.0977 13.6982 17.0525 13.7299 17.0073C13.5175 17.283 13.2735 17.527 12.9978 17.7393C13.043 17.7032 13.0882 17.667 13.1334 17.6354C12.8668 17.8388 12.5776 18.0105 12.2704 18.1415C12.3246 18.1189 12.3788 18.0963 12.433 18.0737C12.1348 18.2002 11.823 18.2861 11.5022 18.3313C11.5609 18.3222 11.6242 18.3132 11.6829 18.3087C11.3712 18.3493 11.0594 18.3493 10.7476 18.3087C10.8063 18.3177 10.8696 18.3268 10.9283 18.3313C10.6121 18.2906 10.3048 18.2048 10.0111 18.0828C10.0653 18.1053 10.1195 18.1279 10.1738 18.1505C9.8936 18.0331 9.63152 17.8749 9.38752 17.6896C9.43271 17.7258 9.47789 17.7619 9.52308 17.7936C9.26552 17.5947 9.03959 17.3643 8.84078 17.1113C8.87693 17.1565 8.91307 17.2016 8.9447 17.2468C8.73685 16.9757 8.56515 16.6775 8.42959 16.3612C8.45218 16.4154 8.47478 16.4696 8.49737 16.5239C8.35277 16.1804 8.25337 15.819 8.20366 15.4484C8.2127 15.5072 8.22174 15.5704 8.22625 15.6292C8.17655 15.2451 8.17655 14.852 8.22625 14.4679C8.21722 14.5267 8.20818 14.5899 8.20366 14.6487C8.2127 14.5673 8.22626 14.4815 8.24433 14.4001C8.27144 14.3098 8.27596 14.2194 8.25788 14.129C8.25337 14.0387 8.22626 13.9528 8.17655 13.876C8.09522 13.7359 7.93255 13.6004 7.76988 13.5642C7.59818 13.5235 7.40388 13.5326 7.24573 13.632C7.10565 13.7224 6.96558 13.8669 6.93395 14.0387C6.84358 14.5221 6.80291 15.0147 6.85262 15.5027C6.90232 15.9726 6.99721 16.429 7.17795 16.8627C7.27736 17.0977 7.37677 17.3282 7.50781 17.545C7.63884 17.7619 7.78796 17.9653 7.95062 18.1596C8.23529 18.5075 8.58322 18.8012 8.96278 19.0407C9.15256 19.1627 9.35137 19.2576 9.55923 19.3479C9.7716 19.4383 9.98397 19.5151 10.2054 19.5648C10.6527 19.6688 11.1272 19.714 11.5835 19.6642C11.8366 19.6371 12.0896 19.5965 12.3336 19.5287C12.5731 19.4609 12.8035 19.366 13.034 19.2666C13.4452 19.0814 13.8202 18.8193 14.1546 18.5211C14.498 18.2138 14.8007 17.8478 15.0402 17.4547C15.2888 17.0525 15.4785 16.6007 15.605 16.1443C15.6322 16.0358 15.6593 15.9274 15.6819 15.819C15.709 15.7286 15.7135 15.6382 15.6954 15.5478C15.6909 15.4575 15.6638 15.3716 15.6141 15.2948C15.5328 15.1547 15.3701 15.0192 15.2074 14.983C15.0357 14.9424 14.8414 14.9514 14.6833 15.0508C14.5522 15.1502 14.4167 15.2903 14.385 15.462Z" fill="#8D33FF"/>
<path d="M18.7628 18.2733C17.9611 18.2733 17.3004 17.6174 17.3004 16.811V5.96235C17.3004 5.16073 17.9563 4.5 18.7628 4.5C19.5644 4.5 20.2251 5.15587 20.2251 5.96235V16.8158C20.2203 17.6174 19.5644 18.2733 18.7628 18.2733Z" fill="#FF8833"/>
<path d="M4.96235 15.4696C4.16073 15.4696 3.5 14.8137 3.5 14.0072V8.76997C3.5 7.96835 4.15587 7.30762 4.96235 7.30762C5.76397 7.30762 6.42471 7.96349 6.42471 8.76997V14.0072C6.41985 14.8089 5.76397 15.4696 4.96235 15.4696Z" fill="#FF8833"/>
<path d="M6.35522 8.70515L18.2522 5.92773V16.8729L6.35522 14.139V8.70515Z" fill="#FF8833"/>
</svg>
