<svg width="17" height="16" viewBox="0 0 17 16" fill="none" xmlns="http://www.w3.org/2000/svg">
<g clip-path="url(#clip0_675_1921)">
<path fill-rule="evenodd" clip-rule="evenodd" d="M9.7386 6.60667L8.3986 3.26978C8.34428 3.1345 8.29509 3.01221 8.25013 2.90135C8.20516 3.01221 8.15597 3.1345 8.10165 3.26978L6.76165 6.60667L3.174 6.84993C3.02855 6.85979 2.89704 6.86878 2.77772 6.87729C2.86926 6.95431 2.97036 7.03888 3.08223 7.13234L5.84172 9.43792L4.96443 12.9251C4.92886 13.0665 4.89678 13.1944 4.86799 13.3105C4.96953 13.2472 5.08121 13.1772 5.20467 13.0997L8.25013 11.1877L11.2956 13.0997C11.419 13.1772 11.5307 13.2472 11.6323 13.3105C11.6035 13.1944 11.5714 13.0665 11.5358 12.9251L10.6585 9.43792L13.418 7.13235C13.5299 7.03888 13.631 6.95431 13.7225 6.87729C13.6032 6.86878 13.4717 6.85979 13.3263 6.84993L9.7386 6.60667ZM5.83629 5.33302L3.0838 5.51965C1.92493 5.59823 1.34549 5.63752 1.09851 5.88236C0.884312 6.09471 0.785935 6.39749 0.83441 6.69518C0.890303 7.03844 1.33598 7.41081 2.22734 8.15554L4.34445 9.92441L3.67138 12.5999C3.38801 13.7263 3.24632 14.2895 3.40286 14.6001C3.53863 14.8694 3.79618 15.0565 4.09429 15.1024C4.43801 15.1553 4.92988 14.8465 5.91361 14.2289L8.25013 12.762L10.5866 14.2289C11.5704 14.8465 12.0622 15.1553 12.406 15.1024C12.7041 15.0565 12.9616 14.8694 13.0974 14.6001C13.2539 14.2895 13.1122 13.7263 12.8289 12.5999L12.1558 9.92441L14.2729 8.15554C15.1643 7.41081 15.6099 7.03844 15.6658 6.69518C15.7143 6.39749 15.6159 6.09471 15.4017 5.88236C15.1548 5.63752 14.5753 5.59823 13.4165 5.51965L10.664 5.33302L9.6359 2.77291C9.20306 1.69505 8.98664 1.15611 8.67745 0.996883C8.4093 0.858787 8.09095 0.858787 7.8228 0.996883C7.51362 1.15611 7.29719 1.69505 6.86435 2.77292L5.83629 5.33302Z" fill="#FF8833"/>
</g>
<mask id="mask0_675_1921" style="mask-type:alpha" maskUnits="userSpaceOnUse" x="0" y="0" width="17" height="16">
<g clip-path="url(#clip1_675_1921)">
<path d="M6.86435 2.77292C7.29719 1.69505 7.51362 1.15611 7.8228 0.996883C8.09095 0.858787 8.4093 0.858787 8.67745 0.996882C8.98664 1.15611 9.20306 1.69505 9.6359 2.77291L10.664 5.33302L13.4165 5.51965C14.5753 5.59823 15.1548 5.63752 15.4017 5.88236C15.6159 6.09471 15.7143 6.39749 15.6658 6.69518C15.6099 7.03844 15.1643 7.41081 14.2729 8.15555L12.1558 9.92441L12.8289 12.5999C13.1122 13.7263 13.2539 14.2895 13.0974 14.6001C12.9616 14.8694 12.7041 15.0565 12.406 15.1024C12.0622 15.1553 11.5704 14.8465 10.5866 14.2289L8.25013 12.762L5.91361 14.2289C4.92988 14.8465 4.43801 15.1553 4.09429 15.1024C3.79618 15.0565 3.53863 14.8694 3.40286 14.6001C3.24632 14.2895 3.38801 13.7263 3.67139 12.5999L4.34445 9.92441L2.22734 8.15555C1.33598 7.41081 0.890303 7.03844 0.83441 6.69518C0.785935 6.39749 0.884312 6.09471 1.09851 5.88236C1.34549 5.63752 1.92493 5.59823 3.0838 5.51965L5.83629 5.33302L6.86435 2.77292Z" fill="#FF8833"/>
</g>
</mask>
<g mask="url(#mask0_675_1921)">
<rect x="0.25" width="7.5" height="16" fill="#FF8833"/>
</g>
<defs>
<clipPath id="clip0_675_1921">
<rect width="16" height="16" fill="white" transform="translate(0.25)"/>
</clipPath>
<clipPath id="clip1_675_1921">
<rect width="16" height="16" fill="white" transform="translate(0.25)"/>
</clipPath>
</defs>
</svg>
