<svg width="24" height="24" viewBox="0 0 24 24" fill="none" xmlns="http://www.w3.org/2000/svg">
<path d="M8.38101 20.7655C16.5167 20.7655 20.9685 14.0188 20.9685 8.17803C20.9685 7.98822 20.9685 7.79842 20.9598 7.60861C21.8226 6.98744 22.5732 6.20234 23.1685 5.31371C22.3747 5.66744 21.5206 5.90038 20.6234 6.01254C21.5379 5.46901 22.2367 4.59763 22.5732 3.56234C21.7191 4.07136 20.77 4.43371 19.7606 4.63214C18.9496 3.7694 17.8022 3.2345 16.534 3.2345C14.0924 3.2345 12.1081 5.21881 12.1081 7.66038C12.1081 8.00548 12.1512 8.34195 12.2202 8.66979C8.54493 8.48861 5.28375 6.71999 3.10101 4.04548C2.7214 4.70116 2.50571 5.46038 2.50571 6.27136C2.50571 7.80705 3.29081 9.16156 4.47277 9.95528C3.74807 9.9294 3.0665 9.73097 2.4712 9.40312C2.4712 9.42038 2.4712 9.43763 2.4712 9.46352C2.4712 11.6031 3.99826 13.3976 6.01709 13.8031C5.64611 13.9067 5.25787 13.9584 4.85238 13.9584C4.56768 13.9584 4.2916 13.9325 4.02415 13.8808C4.58493 15.6408 6.22415 16.9176 8.1567 16.9521C6.63826 18.1427 4.7316 18.8502 2.66101 18.8502C2.30728 18.8502 1.95356 18.8329 1.60846 18.7898C3.55826 20.0321 5.88768 20.7655 8.38101 20.7655Z" fill="black"/>
</svg>
